wdth50.ufo
<glyph name="zero" format="2">
	<unicode hex="0030"/>
	<advance width="1200"/>
	<outline>
		<contour>
			<point x="74.0006103516" y="746" type="qcurve" smooth="yes"/>
			<point x="74.0006103516" y="1091"/>
			<point x="348.8428955078" y="1520"/>
			<point x="601.3453369141" y="1520" type="qcurve" smooth="yes"/>
			<point x="861.1402587891" y="1520"/>
			<point x="1126.2886962891" y="1097"/>
			<point x="1126.2886962891" y="754" type="qcurve" smooth="yes"/>
			<point x="1126.2886962891" y="432"/>
			<point x="865.2354736328" y="-22"/>
			<point x="605.7467041016" y="-22" type="qcurve" smooth="yes"/>
			<point x="343.4552001953" y="-22"/>
			<point x="74.0006103516" y="399"/>
		</contour>
		<contour>
			<point x="270.9488525391" y="772" type="qcurve" smooth="yes"/>
			<point x="259" y="481"/>
			<point x="451.0553588867" y="91.0152587891"/>
			<point x="600.3453369141" y="91.0152587891" type="qcurve" smooth="yes"/>
			<point x="757.6353149414" y="91.0152587891"/>
			<point x="917" y="447"/>
			<point x="929.3404541016" y="746" type="qcurve" smooth="yes"/>
			<point x="917" y="1027"/>
			<point x="752.0366821289" y="1397.8419189453"/>
			<point x="603.7467041016" y="1397.8419189453" type="qcurve" smooth="yes"/>
			<point x="442.4567260742" y="1397.8419189453"/>
			<point x="259" y="1060"/>
		</contour>
	</outline>
</glyph>
<glyph name="one" format="2">
	<unicode hex="0031"/>
	<advance width="811"/>
	<outline>
		<contour>
			<point x="102.6145019531" y="0" type="line"/>
			<point x="102.6145019531" y="95.0012207031" type="line"/>
			<point x="360.6114501953" y="130.0012207031" type="line"/>
			<point x="360.6114501953" y="754" type="line"/>
			<point x="358.6114501953" y="1366.4855957031" type="line"/>
			<point x="106.4610595703" y="1389.3420410156" type="line"/>
			<point x="106.4610595703" y="1490" type="line"/>
			<point x="510.7027587891" y="1513" type="line"/>
			<point x="542.7979736328" y="1478" type="line"/>
			<point x="536.7027587891" y="754" type="line"/>
			<point x="536.7027587891" y="130.0012207031" type="line"/>
			<point x="794.6997070312" y="95.0012207031" type="line"/>
			<point x="794.6997070312" y="0" type="line"/>
		</contour>
	</outline>
</glyph>
<glyph name="two" format="2">
	<unicode hex="0032"/>
	<advance width="1029"/>
	<outline>
		<contour>
			<point x="66.4328613281" y="0" type="line"/>
			<point x="66.4328613281" y="120.7145996094" type="line"/>
			<point x="89.4465332031" y="243.7705078125"/>
			<point x="245.1545410156" y="492.185546875"/>
			<point x="415.3864746094" y="640.0288085938" type="qcurve" smooth="yes"/>
			<point x="590.2033691406" y="793.2183837891"/>
			<point x="728.1223144531" y="997.4276123047"/>
			<point x="728.1223144531" y="1135.2994384766" type="qcurve" smooth="yes"/>
			<point x="728.1223144531" y="1256.0563964844"/>
			<point x="597.4143066406" y="1383.7847900391"/>
			<point x="483.3459472656" y="1383.7847900391" type="qcurve" smooth="yes"/>
			<point x="376.6379394531" y="1383.7847900391"/>
			<point x="205.8889160156" y="1279.6765136719"/>
			<point x="148.4328613281" y="1194.1594238281" type="qcurve"/>
			<point x="59.4328613281" y="1265.904296875" type="line"/>
			<point x="127.0793457031" y="1371.33984375"/>
			<point x="338.5212402344" y="1520"/>
			<point x="523.1330566406" y="1520" type="qcurve" smooth="yes"/>
			<point x="684.7922363281" y="1520"/>
			<point x="922.7370605469" y="1331.3856201172"/>
			<point x="922.7370605469" y="1138.5950927734" type="qcurve" smooth="yes"/>
			<point x="922.7370605469" y="928.7127685547"/>
			<point x="661.3055419922" y="643.4353027344"/>
			<point x="525.2064208984" y="536.1540527344" type="qcurve" smooth="yes"/>
			<point x="381.9332275391" y="427.1102294922"/>
			<point x="250.1823730469" y="274.8518066406"/>
			<point x="217.1890869141" y="192.2105712891" type="qcurve"/>
			<point x="225.1890869141" y="181.1391601562" type="line"/>
			<point x="954.5124511719" y="181.1391601562" type="line"/>
			<point x="954.5124511719" y="0" type="line"/>
		</contour>
	</outline>
</glyph>
<glyph name="three" format="2">
	<unicode hex="0033"/>
	<advance width="1027"/>
	<outline>
		<contour>
			<point x="8.7572021484" y="147" type="qcurve"/>
			<point x="89.7572021484" y="238.4006347656" type="line"/>
			<point x="172.8255615234" y="147.80078125"/>
			<point x="324.7445068359" y="102.3009033203"/>
			<point x="438.2415771484" y="102.3009033203" type="qcurve" smooth="yes"/>
			<point x="568.5413818359" y="102.3009033203"/>
			<point x="746.4739990234" y="241.4149169922"/>
			<point x="746.4739990234" y="401.5860595703" type="qcurve" smooth="yes"/>
			<point x="746.4739990234" y="570.8714599609"/>
			<point x="498.0853271484" y="729.0711669922"/>
			<point x="296.9144287109" y="729.0711669922" type="qcurve" smooth="yes"/>
			<point x="249.6761474609" y="729.0711669922" type="line"/>
			<point x="209.4447021484" y="828.5144042969" type="line"/>
			<point x="318.1253662109" y="833.9443359375" type="line" smooth="yes"/>
			<point x="501.0579833984" y="842.4171142578"/>
			<point x="714.6507568359" y="1006.8854980469"/>
			<point x="714.6507568359" y="1163.0709228516" type="qcurve" smooth="yes"/>
			<point x="714.6507568359" y="1280.9849853516"/>
			<point x="578.7386474609" y="1393.9418945312"/>
			<point x="484.6907958984" y="1393.9418945312" type="qcurve" smooth="yes"/>
			<point x="369.3841552734" y="1393.9418945312"/>
			<point x="210.4652099609" y="1297.8431396484"/>
			<point x="143.7982177734" y="1215.5322265625" type="qcurve"/>
			<point x="58.7845458984" y="1301.931640625" type="line"/>
			<point x="132.4647216797" y="1405.5712890625"/>
			<point x="351.9676513672" y="1520"/>
			<point x="491.4027099609" y="1520" type="qcurve" smooth="yes"/>
			<point x="669.7015380859" y="1520"/>
			<point x="900.6942138672" y="1342"/>
			<point x="900.6942138672" y="1184" type="qcurve" smooth="yes"/>
			<point x="900.6942138672" y="1027"/>
			<point x="722.1844482422" y="844"/>
			<point x="559.9603271484" y="800" type="qcurve"/>
			<point x="560.2459716797" y="793" type="line"/>
			<point x="722.2796630859" y="766"/>
			<point x="935.4969482422" y="563"/>
			<point x="935.4969482422" y="390" type="qcurve" smooth="yes"/>
			<point x="935.4969482422" y="199"/>
			<point x="655.9124755859" y="-22"/>
			<point x="445.1033935547" y="-22" type="qcurve" smooth="yes"/>
			<point x="310.2601318359" y="-22"/>
			<point x="74.6278076172" y="72.6123046875"/>
		</contour>
	</outline>
</glyph>
<glyph name="four" format="2">
	<unicode hex="0034"/>
	<advance width="1141"/>
	<outline>
		<contour>
			<point x="30.7841796875" y="554" type="line"/>
			<point x="791.5693359375" y="1527" type="line"/>
			<point x="878.138671875" y="1500" type="line"/>
			<point x="905.9951171875" y="1469" type="line"/>
			<point x="900.9951171875" y="491" type="line"/>
			<point x="900.9951171875" y="130.0012207031" type="line"/>
			<point x="1104.1784667969" y="95.0012207031" type="line"/>
			<point x="1104.1784667969" y="0" type="line"/>
			<point x="510.6395263672" y="0" type="line"/>
			<point x="510.6395263672" y="95.0012207031" type="line"/>
			<point x="725.7607421875" y="130.0012207031" type="line"/>
			<point x="732.7607421875" y="489" type="line"/>
			<point x="732.7607421875" y="1322.4055175781" type="line"/>
			<point x="187.7009277344" y="573.1518554688" type="line"/>
			<point x="192.7009277344" y="563.1518554688" type="line"/>
			<point x="1146.615234375" y="544.7436523438" type="line"/>
			<point x="1146.615234375" y="442.8140869141" type="line"/>
			<point x="46.7841796875" y="438.8140869141" type="line"/>
		</contour>
	</outline>
</glyph>
<glyph name="five" format="2">
	<unicode hex="0035"/>
	<advance width="1051"/>
	<outline>
		<contour>
			<point x="22.8111572266" y="147" type="qcurve"/>
			<point x="93.8179931641" y="238.8433837891" type="line"/>
			<point x="151.2672119141" y="187.9007568359"/>
			<point x="332.2545166016" y="100.7864990234"/>
			<point x="468.9967041016" y="100.7864990234" type="qcurve" smooth="yes"/>
			<point x="617.1265869141" y="100.7864990234"/>
			<point x="780.5084228516" y="270.0004882812"/>
			<point x="780.5084228516" y="443.3001708984" type="qcurve" smooth="yes"/>
			<point x="780.5084228516" y="622.5712890625"/>
			<point x="544.8541259766" y="797.9566650391"/>
			<point x="282.5875244141" y="797.9566650391" type="qcurve" smooth="yes"/>
			<point x="159.8726806641" y="797.9566650391" type="line"/>
			<point x="127.8726806641" y="836" type="line"/>
			<point x="177.8726806641" y="1467" type="line"/>
			<point x="200.8726806641" y="1500" type="line"/>
			<point x="897.2867431641" y="1500" type="line"/>
			<point x="887.1304931641" y="1307.9086914062" type="line"/>
			<point x="270.0640869141" y="1307.9086914062" type="line"/>
			<point x="262.0355224609" y="1296.9086914062" type="line"/>
			<point x="229.7591552734" y="912" type="line"/>
			<point x="376.4947509766" y="937" type="line"/>
			<point x="647.2940673828" y="941.4150390625"/>
			<point x="977.2662353516" y="709.2314453125"/>
			<point x="977.2662353516" y="472" type="qcurve" smooth="yes"/>
			<point x="977.2662353516" y="231"/>
			<point x="692.5386962891" y="-22"/>
			<point x="495.4981689453" y="-22" type="qcurve" smooth="yes"/>
			<point x="338.2940673828" y="-22"/>
			<point x="89.4981689453" y="83.8232421875"/>
		</contour>
	</outline>
</glyph>
<glyph name="six" format="2">
	<unicode hex="0036"/>
	<advance width="1174"/>
	<outline>
		<contour>
			<point x="74.0006103516" y="617" type="qcurve" smooth="yes"/>
			<point x="74.0006103516" y="953.4287109375"/>
			<point x="517.8438720703" y="1477.857421875"/>
			<point x="904.1158447266" y="1579" type="qcurve"/>
			<point x="916.91796875" y="1453.4545898438" type="line"/>
			<point x="622.5550537109" y="1366.7957763672"/>
			<point x="267.7584228516" y="978.0280761719"/>
			<point x="267.7584228516" y="616" type="qcurve" smooth="yes"/>
			<point x="267.7584228516" y="356.5146484375"/>
			<point x="484.8134155273" y="86.0007324219"/>
			<point x="631.6177978516" y="86.0007324219" type="qcurve" smooth="yes"/>
			<point x="756.9934692383" y="86.0007324219"/>
			<point x="930.3740234375" y="288.5003662109"/>
			<point x="930.3883056641" y="456.8000488281" type="qcurve" smooth="yes"/>
			<point x="930.4025878906" y="636.1140136719"/>
			<point x="748.1050415039" y="788.5422363281"/>
			<point x="633.8150634766" y="788.5422363281" type="qcurve" smooth="yes"/>
			<point x="558.2724609375" y="788.5422363281"/>
			<point x="478.2154541016" y="773.0340576172"/>
			<point x="442.9771728516" y="758.5966796875" type="qcurve"/>
			<point x="405.2628173828" y="831.7687988281" type="line"/>
			<point x="438.4327392578" y="863.7551269531"/>
			<point x="575.0650634766" y="920.5715332031"/>
			<point x="676.2349853516" y="920.5715332031" type="qcurve" smooth="yes"/>
			<point x="877.2686767578" y="920.5715332031"/>
			<point x="1123.3839111328" y="693"/>
			<point x="1123.3839111328" y="507.7958984375" type="qcurve" smooth="yes"/>
			<point x="1123.3839111328" y="248"/>
			<point x="842.9361572266" y="-22"/>
			<point x="632.3521728516" y="-22" type="qcurve" smooth="yes"/>
			<point x="382.9112548828" y="-22"/>
			<point x="74.0006103516" y="355.87109375"/>
		</contour>
	</outline>
</glyph>
<glyph name="seven" format="2">
	<unicode hex="0037"/>
	<advance width="1027"/>
	<outline>
		<contour>
			<point x="52.8131713867" y="1087.6634521484" type="line"/>
			<point x="73.4323730469" y="1500" type="line"/>
			<point x="979.9350585938" y="1500" type="line"/>
			<point x="979.9350585938" y="1402.3349609375" type="line"/>
			<point x="638.5795898438" y="653.0478515625" type="line"/>
			<point x="381.8559570312" y="-23" type="line"/>
			<point x="205.669921875" y="-23" type="line"/>
			<point x="205.669921875" y="54.7607421875" type="line"/>
			<point x="521.2578125" y="696.904296875" type="line"/>
			<point x="809.2183837891" y="1295.6704101562" type="line"/>
			<point x="791.0469970703" y="1321.6704101562" type="line"/>
			<point x="212.4819335938" y="1321.6704101562" type="line"/>
			<point x="170.8654785156" y="1087.6634521484" type="line"/>
		</contour>
	</outline>
</glyph>
<glyph name="eight" format="2">
	<unicode hex="0038"/>
	<advance width="1090"/>
	<outline>
		<contour>
			<point x="42.8111572266" y="382" type="qcurve" smooth="yes"/>
			<point x="42.8111572266" y="578.4150390625"/>
			<point x="306.1793212891" y="806.619140625"/>
			<point x="419.7457275391" y="849.3403320312" type="qcurve"/>
			<point x="486.5456542969" y="792.3626708984" type="line"/>
			<point x="355.5588378906" y="741.3063964844"/>
			<point x="178.3974609375" y="537.4313964844"/>
			<point x="178.3974609375" y="386.9716796875" type="qcurve" smooth="yes"/>
			<point x="178.3974609375" y="248.3004150391"/>
			<point x="368.2199707031" y="89.3435058594"/>
			<point x="538.6030273438" y="89.3435058594" type="qcurve" smooth="yes"/>
			<point x="689.4226074219" y="89.3435058594"/>
			<point x="876.4987792969" y="238.2718505859"/>
			<point x="876.4987792969" y="379.3239746094" type="qcurve" smooth="yes"/>
			<point x="876.4987792969" y="503.6750488281"/>
			<point x="722.6409912109" y="635.2641601562"/>
			<point x="534.6671142578" y="710.9592285156" type="qcurve" smooth="yes"/>
			<point x="307.9056396484" y="823.2293701172"/>
			<point x="136.2008056641" y="1006.0743408203"/>
			<point x="136.2008056641" y="1165.1430664062" type="qcurve" smooth="yes"/>
			<point x="136.2008056641" y="1329.1430664062"/>
			<point x="401.0709228516" y="1521"/>
			<point x="560.1802978516" y="1521" type="qcurve" smooth="yes"/>
			<point x="723.5006103516" y="1521"/>
			<point x="937.8414306641" y="1350"/>
			<point x="937.8414306641" y="1207" type="qcurve" smooth="yes"/>
			<point x="937.8414306641" y="1076"/>
			<point x="777.5484619141" y="889"/>
			<point x="649.7647705078" y="807.0952148438" type="qcurve"/>
			<point x="569.2600097656" y="865.23828125" type="line"/>
			<point x="687.7125244141" y="932.2573242188"/>
			<point x="809.998046875" y="1078.0285644531"/>
			<point x="809.998046875" y="1188.4998779297" type="qcurve" smooth="yes"/>
			<point x="809.998046875" y="1292.9569091797"/>
			<point x="672.9079589844" y="1411.4996337891"/>
			<point x="559.1221923828" y="1411.4996337891" type="qcurve" smooth="yes"/>
			<point x="441.9829101562" y="1411.4996337891"/>
			<point x="290.1595458984" y="1271.8251953125"/>
			<point x="290.1595458984" y="1188.4520263672" type="qcurve" smooth="yes"/>
			<point x="290.1595458984" y="1093.8480224609"/>
			<point x="396.2000732422" y="976.4193115234"/>
			<point x="617.4393310547" y="876.7864990234" type="qcurve" smooth="yes"/>
			<point x="823.0457763672" y="794.5008544922"/>
			<point x="1039.5953369141" y="590.501953125"/>
			<point x="1039.5953369141" y="407.5708007812" type="qcurve" smooth="yes"/>
			<point x="1039.5953369141" y="223"/>
			<point x="761.4595947266" y="-22"/>
			<point x="544.0504150391" y="-22" type="qcurve" smooth="yes"/>
			<point x="313.1861572266" y="-22"/>
			<point x="42.8111572266" y="194"/>
		</contour>
	</outline>
</glyph>
<glyph name="nine" format="2">
	<unicode hex="0039"/>
	<advance width="1172"/>
	<outline>
		<contour>
			<point x="49.270690918" y="990" type="qcurve" smooth="yes"/>
			<point x="49.270690918" y="1251"/>
			<point x="333.9298706055" y="1521"/>
			<point x="538.874206543" y="1521" type="qcurve" smooth="yes"/>
			<point x="780.4577026367" y="1521"/>
			<point x="1097.4498901367" y="1156.775390625"/>
			<point x="1097.4498901367" y="882" type="qcurve" smooth="yes"/>
			<point x="1097.4498901367" y="553.197265625"/>
			<point x="655.042175293" y="20.33984375"/>
			<point x="266.2872924805" y="-82.0068359375" type="qcurve"/>
			<point x="254.287902832" y="43.0943603516" type="line"/>
			<point x="549.037902832" y="128.1477050781"/>
			<point x="902.6447143555" y="521.0433349609"/>
			<point x="902.6447143555" y="883" type="qcurve" smooth="yes"/>
			<point x="902.6447143555" y="1142.4567871094"/>
			<point x="689.2005615234" y="1413.7276611328"/>
			<point x="541.9962768555" y="1413.7276611328" type="qcurve" smooth="yes"/>
			<point x="416.7062988281" y="1413.7276611328"/>
			<point x="241.2189331055" y="1210.4996337891"/>
			<point x="241.2189331055" y="1042.0571289062" type="qcurve" smooth="yes"/>
			<point x="241.2189331055" y="862.6860351562"/>
			<point x="440.9323730469" y="708.4223632812"/>
			<point x="555.3794555664" y="708.4223632812" type="qcurve" smooth="yes"/>
			<point x="613.7361450195" y="708.4223632812"/>
			<point x="693.4774780273" y="723.5148925781"/>
			<point x="728.2286987305" y="736.7053222656" type="qcurve"/>
			<point x="766.2286987305" y="663.9931640625" type="line"/>
			<point x="733.1539916992" y="634.81640625"/>
			<point x="602.9567260742" y="576.39453125"/>
			<point x="494.0319213867" y="576.39453125" type="qcurve" smooth="yes"/>
			<point x="295.1954956055" y="576.39453125"/>
			<point x="49.270690918" y="805.197265625"/>
		</contour>
	</outline>
</glyph>
<glyph name="C" format="2">
	<unicode hex="0043"/>
	<advance width="1482"/>
	<outline>
		<contour>
			<point x="80.0009765625" y="693" type="qcurve" smooth="yes"/>
			<point x="80.0009765625" y="1050"/>
			<point x="492.3854370117" y="1514"/>
			<point x="831.6182250977" y="1514" type="qcurve" smooth="yes"/>
			<point x="977.3582763672" y="1514"/>
			<point x="1166.1233520508" y="1425"/>
			<point x="1210.9553222656" y="1383" type="qcurve"/>
			<point x="1240.1527099609" y="1499" type="line"/>
			<point x="1330.643737793" y="1499" type="line"/>
			<point x="1330.643737793" y="1015.9110717773" type="line"/>
			<point x="1222.8862304688" y="1015.9110717773" type="line"/>
			<point x="1180.4822387695" y="1213.0932006836" type="line" smooth="yes"/>
			<point x="1164.3925170898" y="1281.1254882812"/>
			<point x="1005.1165161133" y="1382.1577758789"/>
			<point x="861.6564941406" y="1382.1577758789" type="qcurve" smooth="yes"/>
			<point x="587.2652587891" y="1382.1577758789"/>
			<point x="268.6454467773" y="1040.1116333008"/>
			<point x="268.6454467773" y="728" type="qcurve" smooth="yes"/>
			<point x="268.6454467773" y="408.9410400391"/>
			<point x="583.6691894531" y="119.6162109375"/>
			<point x="841.0949707031" y="119.6162109375" type="qcurve" smooth="yes"/>
			<point x="1035.3265380859" y="119.6162109375"/>
			<point x="1256.1334838867" y="210.7776489258"/>
			<point x="1325.4376831055" y="309.5184326172" type="qcurve"/>
			<point x="1422.3435668945" y="242" type="line"/>
			<point x="1341.2244873047" y="130"/>
			<point x="1036.5197753906" y="-34"/>
			<point x="838.6943359375" y="-34" type="qcurve" smooth="yes"/>
			<point x="502.7530517578" y="-34"/>
			<point x="80.0009765625" y="353"/>
		</contour>
	</outline>
	<anchor name="bottom" x="836" y="0"/>
	<anchor name="top" x="836" y="1500"/>
</glyph>
<glyph name="G" format="2">
	<unicode hex="0047"/>
	<advance width="1573"/>
	<outline>
		<contour>
			<point x="80.0009765625" y="724" type="qcurve" smooth="yes"/>
			<point x="80.0009765625" y="1108"/>
			<point x="522.2474975586" y="1514"/>
			<point x="844.6002807617" y="1514" type="qcurve" smooth="yes"/>
			<point x="992.6856079102" y="1514"/>
			<point x="1169.8519897461" y="1463.3228759766"/>
			<point x="1212.1390991211" y="1421.6457519531" type="qcurve"/>
			<point x="1238.2108764648" y="1499" type="line"/>
			<point x="1334.2108764648" y="1499" type="line"/>
			<point x="1334.2108764648" y="1020.7875976562" type="line"/>
			<point x="1218.5139770508" y="1020.7875976562" type="line"/>
			<point x="1198.2108764648" y="1156" type="line" smooth="yes"/>
			<point x="1181.2108764648" y="1275"/>
			<point x="994.5599975586" y="1381.770324707"/>
			<point x="854.7654418945" y="1381.770324707" type="qcurve" smooth="yes"/>
			<point x="585.1123046875" y="1381.770324707"/>
			<point x="267.7036132812" y="1038.3658447266"/>
			<point x="269.7036132812" y="748" type="qcurve" smooth="yes"/>
			<point x="270.7036132812" y="452.5333251953"/>
			<point x="630.3304443359" y="116.6807861328"/>
			<point x="938.3173828125" y="116.6807861328" type="qcurve" smooth="yes"/>
			<point x="1022.2663574219" y="116.6807861328"/>
			<point x="1200.5762939453" y="154.2287597656"/>
			<point x="1268.7133178711" y="199.1318969727" type="qcurve"/>
			<point x="1268.7133178711" y="519.0021972656" type="line"/>
			<point x="1082.8823852539" y="554.0021972656" type="line"/>
			<point x="1082.8823852539" y="658" type="line"/>
			<point x="1550.7393188477" y="658" type="line"/>
			<point x="1550.7393188477" y="554.0021972656" type="line"/>
			<point x="1427.2526245117" y="519.0021972656" type="line"/>
			<point x="1427.2526245117" y="172" type="line"/>
			<point x="1348.9434204102" y="84"/>
			<point x="1065.3062744141" y="-22"/>
			<point x="880.8486328125" y="-22" type="qcurve" smooth="yes"/>
			<point x="538.5184936523" y="-22"/>
			<point x="80.0009765625" y="374"/>
		</contour>
	</outline>
	<anchor name="bottom" x="872" y="0"/>
	<anchor name="top" x="836" y="1500"/>
</glyph>
<glyph name="I" format="2">
	<unicode hex="0049"/>
	<advance width="789"/>
	<outline>
		<contour>
			<point x="93.8562011719" y="0" type="line"/>
			<point x="93.8562011719" y="99.9978027344" type="line"/>
			<point x="304.25390625" y="134.9978027344" type="line"/>
			<point x="306.3702392578" y="754" type="line"/>
			<point x="304.25390625" y="1353.4425048828" type="line"/>
			<point x="93.8562011719" y="1387.4425048828" type="line"/>
			<point x="93.8562011719" y="1500" type="line"/>
			<point x="694.7144165039" y="1500" type="line"/>
			<point x="694.7144165039" y="1387.4425048828" type="line"/>
			<point x="484.3167114258" y="1353.4425048828" type="line"/>
			<point x="482.200378418" y="754" type="line"/>
			<point x="484.3167114258" y="134.9978027344" type="line"/>
			<point x="694.7144165039" y="99.9978027344" type="line"/>
			<point x="694.7144165039" y="0" type="line"/>
		</contour>
	</outline>
	<anchor name="bottom" x="390" y="0"/>
	<anchor name="ogonek" x="526" y="0"/>
	<anchor name="top" x="390" y="1500"/>
	<anchor name="tonos" x="0" y="1500"/>
	<anchor name="yu_dash" x="380" y="755"/>
	<anchor name="_Yeru_I" x="82" y="0"/>
	<anchor name="liga" x="780" y="0"/>
</glyph>
<glyph name="K" format="2">
	<unicode hex="004B"/>
	<advance width="1427"/>
	<outline>
		<contour>
			<point x="82.01171875" y="0" type="line"/>
			<point x="82.01171875" y="99.9978027344" type="line"/>
			<point x="290.005859375" y="134.9978027344" type="line"/>
			<point x="292.005859375" y="754" type="line"/>
			<point x="290.005859375" y="1353.4425048828" type="line"/>
			<point x="82.01171875" y="1387.4425048828" type="line"/>
			<point x="82.01171875" y="1500" type="line"/>
			<point x="665.6592407227" y="1500" type="line"/>
			<point x="665.6592407227" y="1387.4425048828" type="line"/>
			<point x="470.0686645508" y="1353.4425048828" type="line"/>
			<point x="467.952331543" y="754" type="line"/>
			<point x="470.0686645508" y="134.9978027344" type="line"/>
			<point x="668.0628051758" y="99.9978027344" type="line"/>
			<point x="668.0628051758" y="0" type="line"/>
		</contour>
		<contour>
			<point x="368.5286254883" y="458.7360839844" type="line"/>
			<point x="371.5286254883" y="593.3853149414" type="line"/>
			<point x="1060.7197265625" y="1353.4425048828" type="line"/>
			<point x="911.3873291016" y="1387.4425048828" type="line"/>
			<point x="911.3873291016" y="1500" type="line"/>
			<point x="1389.0557250977" y="1500" type="line"/>
			<point x="1389.0557250977" y="1387.4425048828" type="line"/>
			<point x="1221.272277832" y="1353.4425048828" type="line"/>
			<point x="753.1480712891" y="832.03515625" type="line"/>
			<point x="709.7340087891" y="787.08984375" type="line"/>
		</contour>
		<contour>
			<point x="636.1967163086" y="805.0439453125" type="line"/>
			<point x="753.4478759766" y="905.1732177734" type="line"/>
			<point x="1313.4907836914" y="133.9978027344" type="line"/>
			<point x="1461.2267456055" y="99.9978027344" type="line"/>
			<point x="1461.2267456055" y="0" type="line"/>
			<point x="953.6520996094" y="0" type="line"/>
			<point x="953.6520996094" y="99.9978027344" type="line"/>
			<point x="1111.0319824219" y="133.9978027344" type="line"/>
		</contour>
	</outline>
	<anchor name="bottom" x="812" y="0"/>
	<anchor name="top" x="770" y="1500"/>
</glyph>
<glyph name="M" format="2">
	<unicode hex="004D"/>
	<advance width="2046"/>
	<outline>
		<contour>
			<point x="82.01171875" y="0" type="line"/>
			<point x="82.01171875" y="99.9978027344" type="line"/>
			<point x="278.005859375" y="134.9978027344" type="line"/>
			<point x="279.005859375" y="754" type="line"/>
			<point x="278.005859375" y="1353.4425048828" type="line"/>
			<point x="82.01171875" y="1387.4425048828" type="line"/>
			<point x="82.01171875" y="1500" type="line"/>
			<point x="497.3419189453" y="1503.08984375" type="line"/>
			<point x="781.7756958008" y="829.4705200195" type="line"/>
			<point x="966.5365600586" y="281.3604125977" type="line"/>
			<point x="1010.8232421875" y="154.3662109375" type="line"/>
			<point x="1020.8232421875" y="154.3662109375" type="line"/>
			<point x="1061.9465332031" y="281.2504882812" type="line"/>
			<point x="1241.5221557617" y="819.9295043945" type="line"/>
			<point x="1538.7352905273" y="1500" type="line"/>
			<point x="1964.0397338867" y="1500" type="line"/>
			<point x="1964.0397338867" y="1387.4425048828" type="line"/>
			<point x="1757.0455932617" y="1353.4425048828" type="line"/>
			<point x="1755.6041870117" y="754" type="line"/>
			<point x="1757.0455932617" y="134.9978027344" type="line"/>
			<point x="1964.0397338867" y="99.9978027344" type="line"/>
			<point x="1964.0397338867" y="0" type="line"/>
			<point x="1358.0106201172" y="0" type="line"/>
			<point x="1359.3348388672" y="99.9978027344" type="line"/>
			<point x="1581.2154541016" y="134.9978027344" type="line"/>
			<point x="1583.2154541016" y="754" type="line"/>
			<point x="1582.1508789062" y="1190.52734375" type="line"/>
			<point x="1587.9810791016" y="1316.52734375" type="line"/>
			<point x="1577.9810791016" y="1321.41015625" type="line"/>
			<point x="1534.7578735352" y="1203.403137207" type="line"/>
			<point x="1345.2506103516" y="755.0546875" type="line"/>
			<point x="1021.8460083008" y="-9.8031616211" type="line"/>
			<point x="947.3151245117" y="-9.8031616211" type="line"/>
			<point x="631.9044799805" y="744.53125" type="line"/>
			<point x="441.0390014648" y="1211.265625" type="line"/>
			<point x="400.8241577148" y="1323.17578125" type="line"/>
			<point x="390.8241577148" y="1318.29296875" type="line"/>
			<point x="398.0311889648" y="1195.29296875" type="line"/>
			<point x="396.5897827148" y="754" type="line"/>
			<point x="397.5897827148" y="134.9978027344" type="line"/>
			<point x="612.987487793" y="99.9978027344" type="line"/>
			<point x="612.987487793" y="0" type="line"/>
		</contour>
	</outline>
	<anchor name="bottom" x="1025" y="0"/>
	<anchor name="top" x="1058" y="1500"/>
</glyph>
<glyph name="N" format="2">
	<unicode hex="004E"/>
	<advance width="1560"/>
	<outline>
		<contour>
			<point x="82.01171875" y="0" type="line"/>
			<point x="82.01171875" y="99.9978027344" type="line"/>
			<point x="278.005859375" y="133.9978027344" type="line"/>
			<point x="279.005859375" y="754" type="line"/>
			<point x="278.005859375" y="1353.4425048828" type="line"/>
			<point x="82.01171875" y="1387.4425048828" type="line"/>
			<point x="82.01171875" y="1500" type="line"/>
			<point x="471.618347168" y="1500" type="line"/>
			<point x="866.1528930664" y="874.3001098633" type="line"/>
			<point x="1133.1645507812" y="409.2025756836" type="line"/>
			<point x="1191.7857055664" y="310.6149291992" type="line"/>
			<point x="1200.7857055664" y="316.4977416992" type="line"/>
			<point x="1195.4614868164" y="443.4977416992" type="line"/>
			<point x="1195.4882202148" y="754" type="line"/>
			<point x="1193.3710327148" y="1353.4425048828" type="line"/>
			<point x="988.5697631836" y="1387.4425048828" type="line"/>
			<point x="988.5697631836" y="1500" type="line"/>
			<point x="1507.4647827148" y="1500" type="line"/>
			<point x="1507.4647827148" y="1387.4425048828" type="line"/>
			<point x="1312.4706420898" y="1353.4425048828" type="line"/>
			<point x="1310.4706420898" y="754" type="line"/>
			<point x="1307.4706420898" y="-4" type="line"/>
			<point x="1226.6545410156" y="-4" type="line"/>
			<point x="736.1268310547" y="754.1384887695" type="line"/>
			<point x="462.0255737305" y="1229.6362915039" type="line"/>
			<point x="401.6114501953" y="1338.6653442383" type="line"/>
			<point x="392.6114501953" y="1332.6661987305" type="line"/>
			<point x="397.9356689453" y="1193.6661987305" type="line"/>
			<point x="395.1700439453" y="754" type="line"/>
			<point x="397.1700439453" y="133.9978027344" type="line"/>
			<point x="591.5677490234" y="99.9978027344" type="line"/>
			<point x="591.5677490234" y="0" type="line"/>
		</contour>
	</outline>
	<anchor name="bottom" x="800" y="0"/>
	<anchor name="top" x="800" y="1500"/>
	<anchor name="engtail" x="1324" y="0"/>
	<anchor name="liga" x="1600" y="0"/>
</glyph>
<glyph name="O" format="2">
	<unicode hex="004F"/>
	<advance width="1658"/>
	<outline>
		<contour>
			<point x="80.0009765625" y="740.1275024414" type="qcurve" smooth="yes"/>
			<point x="80.0009765625" y="1070"/>
			<point x="494.8353881836" y="1520"/>
			<point x="831.0835571289" y="1520" type="qcurve" smooth="yes"/>
			<point x="1166.0374755859" y="1520"/>
			<point x="1577.9232788086" y="1099"/>
			<point x="1577.9232788086" y="756" type="qcurve" smooth="yes"/>
			<point x="1577.9232788086" y="429"/>
			<point x="1168.7321166992" y="-22"/>
			<point x="831.3676147461" y="-22" type="qcurve" smooth="yes"/>
			<point x="503.3041381836" y="-22"/>
			<point x="80.0009765625" y="401.8366699219"/>
		</contour>
		<contour>
			<point x="268.7036132812" y="775" type="qcurve" smooth="yes"/>
			<point x="268.7036132812" y="482.1448974609"/>
			<point x="584.7550048828" y="113.035949707"/>
			<point x="830.2512817383" y="113.035949707" type="qcurve" smooth="yes"/>
			<point x="1101.2568969727" y="113.035949707"/>
			<point x="1390.2206420898" y="439.9206542969"/>
			<point x="1390.2206420898" y="749" type="qcurve" smooth="yes"/>
			<point x="1390.2206420898" y="1024.8551025391"/>
			<point x="1080.2517089844" y="1376.7057495117"/>
			<point x="831.1237792969" y="1376.7057495117" type="qcurve" smooth="yes"/>
			<point x="560.1181640625" y="1376.7057495117"/>
			<point x="268.7036132812" y="1057.9978027344"/>
		</contour>
	</outline>
	<anchor name="bottom" x="832" y="0"/>
	<anchor name="center" x="832" y="750"/>
	<anchor name="ogonek" x="1064" y="0"/>
	<anchor name="top" x="832" y="1500"/>
	<anchor name="topright" x="1028" y="1500"/>
	<anchor name="tonos" x="140" y="1500"/>
	<anchor name="_yu_dash" x="169" y="755"/>
</glyph>
<glyph name="P" format="2">
	<unicode hex="0050"/>
	<advance width="1258"/>
	<outline>
		<contour>
			<point x="82.01171875" y="0" type="line"/>
			<point x="82.01171875" y="98.9978027344" type="line"/>
			<point x="290.005859375" y="133.9978027344" type="line"/>
			<point x="293.1401367188" y="754" type="line"/>
			<point x="290.005859375" y="1353.4425048828" type="line"/>
			<point x="82.01171875" y="1387.4425048828" type="line"/>
			<point x="82.01171875" y="1500" type="line"/>
			<point x="736.1479492188" y="1500" type="line" smooth="yes"/>
			<point x="974.9516601562" y="1500"/>
			<point x="1213.6745605469" y="1284"/>
			<point x="1213.6745605469" y="1072" type="qcurve" smooth="yes"/>
			<point x="1213.6745605469" y="866"/>
			<point x="959.309387207" y="597.869934082"/>
			<point x="717.6734008789" y="597.869934082" type="qcurve" smooth="yes"/>
			<point x="593.7462768555" y="597.869934082"/>
			<point x="440.229675293" y="618.8376464844"/>
			<point x="396.2940673828" y="626.6762084961" type="qcurve"/>
			<point x="402.817565918" y="735.9049682617" type="line"/>
			<point x="467.2995605469" y="722.9372558594"/>
			<point x="570.16796875" y="714.2924194336"/>
			<point x="680.5444335938" y="714.2924194336" type="qcurve" smooth="yes"/>
			<point x="843.0551757812" y="714.2924194336"/>
			<point x="1026.3209228516" y="902.0010986328"/>
			<point x="1026.3209228516" y="1072" type="qcurve" smooth="yes"/>
			<point x="1026.3209228516" y="1228.2027587891"/>
			<point x="858.42578125" y="1378.4160766602"/>
			<point x="692.581237793" y="1378.4160766602" type="qcurve" smooth="yes"/>
			<point x="493.1268310547" y="1378.4160766602" type="line"/>
			<point x="469.1268310547" y="1356.4160766602" type="line"/>
			<point x="466.952331543" y="764" type="line"/>
			<point x="469.0686645508" y="133.9978027344" type="line"/>
			<point x="682.869934082" y="99.9978027344" type="line"/>
			<point x="682.869934082" y="0" type="line"/>
		</contour>
	</outline>
	<anchor name="bottom" x="634" y="0"/>
	<anchor name="top" x="634" y="1500"/>
</glyph>
<glyph name="S" format="2">
	<unicode hex="0053"/>
	<advance width="1104"/>
	<outline>
		<contour>
			<point x="67.09765625" y="0" type="line"/>
			<point x="67.09765625" y="490.3638305664" type="line"/>
			<point x="174.8854980469" y="490.3638305664" type="line"/>
			<point x="188.09765625" y="365" type="line" smooth="yes"/>
			<point x="201.4196166992" y="237.6807861328"/>
			<point x="430.7178344727" y="105.7776489258"/>
			<point x="581.6586303711" y="105.7776489258" type="qcurve" smooth="yes"/>
			<point x="742.4859008789" y="105.7776489258"/>
			<point x="893.9246826172" y="236.096862793"/>
			<point x="893.9246826172" y="360.5861206055" type="qcurve" smooth="yes"/>
			<point x="893.9246826172" y="507.0784301758"/>
			<point x="691.3791503906" y="649.0134277344"/>
			<point x="495.7216186523" y="713.6265258789" type="qcurve" smooth="yes"/>
			<point x="314.5914916992" y="773.3786621094"/>
			<point x="108.1692504883" y="968.7128295898"/>
			<point x="108.1692504883" y="1142.0803222656" type="qcurve" smooth="yes"/>
			<point x="108.1692504883" y="1310.6353759766"/>
			<point x="333.3880615234" y="1515"/>
			<point x="515.4057617188" y="1515" type="qcurve" smooth="yes"/>
			<point x="619.7379760742" y="1515"/>
			<point x="778.405090332" y="1472.8330688477"/>
			<point x="833.0590820312" y="1434.033203125" type="qcurve"/>
			<point x="842.8321533203" y="1499" type="line"/>
			<point x="938.8321533203" y="1499" type="line"/>
			<point x="938.8321533203" y="1053.7875976562" type="line"/>
			<point x="833.2867431641" y="1053.7875976562" type="line"/>
			<point x="809.8321533203" y="1215" type="line" smooth="yes"/>
			<point x="800.1458129883" y="1283.3033447266"/>
			<point x="644.8694458008" y="1381.9317626953"/>
			<point x="518.8986206055" y="1381.9317626953" type="qcurve" smooth="yes"/>
			<point x="395.5634155273" y="1381.9317626953"/>
			<point x="270.2503051758" y="1279.2725219727"/>
			<point x="270.2503051758" y="1180.9055786133" type="qcurve" smooth="yes"/>
			<point x="270.2503051758" y="1090.140625"/>
			<point x="404.0508422852" y="958.4002685547"/>
			<point x="612.7105712891" y="889.3731689453" type="qcurve" smooth="yes"/>
			<point x="797.2469482422" y="833.8610229492"/>
			<point x="1058.0897827148" y="610.8432006836"/>
			<point x="1058.0897827148" y="412.0626220703" type="qcurve" smooth="yes"/>
			<point x="1058.0897827148" y="218.8240356445"/>
			<point x="798.6448364258" y="-16"/>
			<point x="594.6461181641" y="-16" type="qcurve" smooth="yes"/>
			<point x="464.6961669922" y="-16"/>
			<point x="252.1588745117" y="54"/>
			<point x="193.09765625" y="113" type="qcurve"/>
			<point x="165.1582641602" y="0" type="line"/>
		</contour>
	</outline>
	<anchor name="bottom" x="599" y="0"/>
	<anchor name="top" x="514" y="1500"/>
</glyph>
<glyph name="T" format="2">
	<unicode hex="0054"/>
	<advance width="1303"/>
	<outline>
		<contour>
			<point x="48.49609375" y="1048.4154663086" type="line"/>
			<point x="48.49609375" y="1500" type="line"/>
			<point x="1254.5510253906" y="1500" type="line"/>
			<point x="1254.5510253906" y="1048.4154663086" type="line"/>
			<point x="1144.5510253906" y="1048.4154663086" type="line"/>
			<point x="1109.5510253906" y="1378.4160766602" type="line"/>
			<point x="760.8293457031" y="1378.4160766602" type="line"/>
			<point x="741.8293457031" y="1358.4160766602" type="line"/>
			<point x="739.7130126953" y="754" type="line"/>
			<point x="741.8293457031" y="133.9978027344" type="line"/>
			<point x="960.9866943359" y="98.9978027344" type="line"/>
			<point x="960.9866943359" y="0" type="line"/>
			<point x="340.1284790039" y="0" type="line"/>
			<point x="340.1284790039" y="98.9978027344" type="line"/>
			<point x="561.7665405273" y="133.9978027344" type="line"/>
			<point x="563.8828735352" y="754" type="line"/>
			<point x="561.7665405273" y="1358.4160766602" type="line"/>
			<point x="552.7665405273" y="1378.4160766602" type="line"/>
			<point x="193.49609375" y="1378.4160766602" type="line"/>
			<point x="158.49609375" y="1048.4154663086" type="line"/>
		</contour>
	</outline>
	<anchor name="bottom" x="644" y="0"/>
	<anchor name="center" x="644" y="750"/>
	<anchor name="top" x="644" y="1500"/>
	<anchor name="cy_descender" x="951" y="100"/>
</glyph>
<glyph name="Z" format="2">
	<unicode hex="005A"/>
	<advance width="1151"/>
	<outline>
		<contour>
			<point x="49.2744750977" y="0" type="line"/>
			<point x="24.5318603516" y="94.2601318359" type="line"/>
			<point x="874.8109741211" y="1370.4160766602" type="line"/>
			<point x="867.8109741211" y="1378.4160766602" type="line"/>
			<point x="229.9921875" y="1378.4160766602" type="line"/>
			<point x="194.8103027344" y="1074.7791137695" type="line"/>
			<point x="84.9921875" y="1074.7791137695" type="line"/>
			<point x="84.9921875" y="1500" type="line"/>
			<point x="1093.0353393555" y="1500" type="line"/>
			<point x="1093.0353393555" y="1406.5138549805" type="line"/>
			<point x="238.3022460938" y="117.2610473633" type="line"/>
			<point x="245.3022460938" y="111.2610473633" type="line"/>
			<point x="944.2515869141" y="111.2610473633" type="line"/>
			<point x="1044.9214477539" y="407.6251831055" type="line"/>
			<point x="1148.0728759766" y="407.6251831055" type="line"/>
			<point x="1090.315246582" y="0" type="line"/>
		</contour>
	</outline>
	<anchor name="bottom" x="583" y="0"/>
	<anchor name="top" x="583" y="1500"/>
	<anchor name="_liga" x="0" y="0"/>
</glyph>
<glyph name="a" format="2">
	<unicode hex="0061"/>
	<advance width="1117"/>
	<outline>
		<contour>
			<point x="100.65234375" y="236.5991210938" type="qcurve" smooth="yes"/>
			<point x="100.65234375" y="383.3986816406"/>
			<point x="431.8754882812" y="585.4069213867"/>
			<point x="807.6262207031" y="629.4644775391" type="qcurve"/>
			<point x="813.6262207031" y="542.8612060547" type="line"/>
			<point x="538.9859619141" y="508.7847900391"/>
			<point x="279.0361328125" y="360.5556030273"/>
			<point x="279.0361328125" y="270.5227050781" type="qcurve" smooth="yes"/>
			<point x="279.0361328125" y="183.1234741211"/>
			<point x="372.9600830078" y="117.2945556641"/>
			<point x="452.7806396484" y="117.2945556641" type="qcurve" smooth="yes"/>
			<point x="531.2327880859" y="117.2945556641"/>
			<point x="689.7634277344" y="190.3530273438"/>
			<point x="728.9221191406" y="243.4259033203" type="qcurve"/>
			<point x="729.0764770508" y="667.9748535156" type="line" smooth="yes"/>
			<point x="729.162902832" y="809.3774414062"/>
			<point x="610.1883544922" y="910.522644043"/>
			<point x="510.8563842773" y="910.522644043" type="qcurve" smooth="yes"/>
			<point x="427.2176513672" y="910.522644043"/>
			<point x="320.5006713867" y="873.4844360352"/>
			<point x="298.5586547852" y="841.21875" type="qcurve"/>
			<point x="303.7567749023" y="824.0823974609"/>
			<point x="344.1657104492" y="778.7730712891"/>
			<point x="346.1826171875" y="737.9088134766" type="qcurve" smooth="yes"/>
			<point x="350.9318847656" y="696.4024658203"/>
			<point x="299.4921875" y="648.5997314453"/>
			<point x="260.380859375" y="648.5997314453" type="qcurve" smooth="yes"/>
			<point x="221.8374023438" y="648.5997314453"/>
			<point x="160.0458984375" y="721.3160400391"/>
			<point x="160.0458984375" y="798.4644775391" type="qcurve" smooth="yes"/>
			<point x="160.0458984375" y="905.9830322266"/>
			<point x="376.7001953125" y="1025.3165283203"/>
			<point x="538.5541992188" y="1025.3165283203" type="qcurve" smooth="yes"/>
			<point x="707.8955078125" y="1025.3165283203"/>
			<point x="898.6638183594" y="863.4769897461"/>
			<point x="898.6638183594" y="688.2024536133" type="qcurve" smooth="yes"/>
			<point x="898.6638183594" y="115" type="line"/>
			<point x="1055.2879638672" y="80" type="line"/>
			<point x="1055.2879638672" y="0" type="line"/>
			<point x="782.8854980469" y="0" type="line"/>
			<point x="743.4777832031" y="52.7163085938" type="line"/>
			<point x="726.0483398438" y="129.9994506836" type="line"/>
			<point x="684.1833496094" y="66.1182250977"/>
			<point x="488.7041015625" y="-13"/>
			<point x="373.3806152344" y="-13" type="qcurve" smooth="yes"/>
			<point x="252.4943847656" y="-13"/>
			<point x="100.65234375" y="116.9194946289"/>
		</contour>
	</outline>
	<anchor name="bottom" x="548" y="0"/>
	<anchor name="ogonek" x="878" y="0"/>
	<anchor name="top" x="514" y="1000"/>
</glyph>
<glyph name="b" format="2">
	<unicode hex="0062"/>
	<advance width="1154"/>
	<outline>
		<contour>
			<point x="157.7641601562" y="0" type="line"/>
			<point x="161.71484375" y="527" type="line"/>
			<point x="158.7641601562" y="1370.271484375" type="line"/>
			<point x="-12.4007568359" y="1404.271484375" type="line"/>
			<point x="-12.4007568359" y="1498.271484375" type="line"/>
			<point x="272.16015625" y="1534" type="line"/>
			<point x="304.16015625" y="1534" type="line"/>
			<point x="333.197265625" y="1502" type="line"/>
			<point x="330.0244140625" y="914.3570556641" type="line"/>
			<point x="374.5873413086" y="962.7968139648"/>
			<point x="541.5508422852" y="1022.3165283203"/>
			<point x="655.8278808594" y="1022.3165283203" type="qcurve" smooth="yes"/>
			<point x="846.1436767578" y="1022.3165283203"/>
			<point x="1087.8034667969" y="785.6774291992"/>
			<point x="1087.8034667969" y="533.3181762695" type="qcurve" smooth="yes"/>
			<point x="1087.8034667969" y="275.8389892578"/>
			<point x="840.0856933594" y="-8"/>
			<point x="619.4945068359" y="-12" type="qcurve" smooth="yes"/>
			<point x="513.1281738281" y="-14"/>
			<point x="352.258605957" y="39.1193847656"/>
			<point x="300.7826538086" y="89.9708862305" type="qcurve"/>
			<point x="248.1146850586" y="0" type="line"/>
		</contour>
		<contour>
			<point x="323.16015625" y="495.7584838867" type="line"/>
			<point x="328.3450927734" y="213.0731201172" type="line"/>
			<point x="363.9468383789" y="153.2921142578"/>
			<point x="516.3314819336" y="92.6274414062"/>
			<point x="602.2190551758" y="92.6274414062" type="qcurve" smooth="yes"/>
			<point x="742.631652832" y="92.6274414062"/>
			<point x="902.5061035156" y="313.3876953125"/>
			<point x="902.5061035156" y="508.1582641602" type="qcurve" smooth="yes"/>
			<point x="902.5061035156" y="702.6802978516"/>
			<point x="743.1713867188" y="898.5411376953"/>
			<point x="606.0950317383" y="898.5411376953" type="qcurve" smooth="yes"/>
			<point x="506.5806274414" y="898.5411376953"/>
			<point x="361.8942871094" y="832.0769042969"/>
			<point x="329.16015625" y="785.547668457" type="qcurve"/>
		</contour>
	</outline>
	<anchor name="bottom" x="571" y="0"/>
	<anchor name="top" x="571" y="1533"/>
</glyph>
<glyph name="c" format="2">
	<unicode hex="0063"/>
	<advance width="965"/>
	<outline>
		<contour>
			<point x="64.0020751953" y="469.8784179688" type="qcurve" smooth="yes"/>
			<point x="64.0020751953" y="712.3981323242"/>
			<point x="320.5254516602" y="1024.9967041016"/>
			<point x="528.9838256836" y="1024.9967041016" type="qcurve" smooth="yes"/>
			<point x="630.6611938477" y="1024.9967041016"/>
			<point x="751.5189208984" y="988.9967041016"/>
			<point x="786.0753173828" y="961.9967041016" type="qcurve"/>
			<point x="804.86328125" y="1017.9967041016" type="line"/>
			<point x="875.3884277344" y="1017.9967041016" type="line"/>
			<point x="880.3884277344" y="636.8728637695" type="line"/>
			<point x="804.8947753906" y="636.8728637695" type="line"/>
			<point x="788.639831543" y="700.6743164062" type="line" smooth="yes"/>
			<point x="767.2699584961" y="789.0752563477"/>
			<point x="657.5248413086" y="909.2767944336"/>
			<point x="547.3432006836" y="909.2767944336" type="qcurve" smooth="yes"/>
			<point x="414.4600219727" y="909.2767944336"/>
			<point x="248.7808837891" y="689.7826538086"/>
			<point x="248.7808837891" y="490.9983520508" type="qcurve" smooth="yes"/>
			<point x="248.7808837891" y="323.2961425781"/>
			<point x="420.8900146484" y="111.4055175781"/>
			<point x="591.9009399414" y="111.4055175781" type="qcurve" smooth="yes"/>
			<point x="701.1861572266" y="111.4055175781"/>
			<point x="853.8262329102" y="170.4609985352"/>
			<point x="910.9778442383" y="220.9616699219" type="qcurve"/>
			<point x="960.2127685547" y="165" type="line"/>
			<point x="911.0064697266" y="94"/>
			<point x="718.7836914062" y="-17"/>
			<point x="558.8435058594" y="-17" type="qcurve" smooth="yes"/>
			<point x="352.5889282227" y="-17"/>
			<point x="64.0020751953" y="258.0388793945"/>
		</contour>
	</outline>
	<anchor name="bottom" x="563" y="0"/>
	<anchor name="top" x="534" y="1000"/>
</glyph>
<glyph name="d" format="2">
	<unicode hex="0064"/>
	<advance width="1213"/>
	<outline>
		<contour>
			<point x="66.6243896484" y="481.7114257812" type="qcurve" smooth="yes"/>
			<point x="66.6243896484" y="714.4931640625"/>
			<point x="342.1299438477" y="1022.3165283203"/>
			<point x="583.1939086914" y="1022.3165283203" type="qcurve" smooth="yes"/>
			<point x="659.8840942383" y="1022.3165283203"/>
			<point x="796.4286499023" y="994.0366821289"/>
			<point x="847.5827636719" y="964.7968139648" type="qcurve"/>
			<point x="838.3474121094" y="1372" type="line"/>
			<point x="667.1824951172" y="1406" type="line"/>
			<point x="667.1824951172" y="1500" type="line"/>
			<point x="955.4266357422" y="1534" type="line"/>
			<point x="988.7230224609" y="1534" type="line"/>
			<point x="1018.9700927734" y="1502" type="line"/>
			<point x="1016.5379638672" y="538.0924682617" type="line"/>
			<point x="1022.3157958984" y="115" type="line"/>
			<point x="1175.642578125" y="80" type="line"/>
			<point x="1175.642578125" y="0" type="line"/>
			<point x="917.50390625" y="0" type="line"/>
			<point x="871.0992431641" y="49" type="line"/>
			<point x="850.1056518555" y="93.9594726562" type="line"/>
			<point x="807.5623168945" y="60.5441894531"/>
			<point x="647.1730957031" y="-9"/>
			<point x="529.8309936523" y="-9" type="qcurve" smooth="yes"/>
			<point x="316.0639648438" y="-9"/>
			<point x="66.6243896484" y="255.6429443359"/>
		</contour>
		<contour>
			<point x="252.9217529297" y="506.1582641602" type="qcurve" smooth="yes"/>
			<point x="252.9217529297" y="333.1195068359"/>
			<point x="409.8139648438" y="118.7384033203"/>
			<point x="565.1223144531" y="118.719909668" type="qcurve" smooth="yes"/>
			<point x="661.9653930664" y="118.7014160156"/>
			<point x="802.4573974609" y="169.2241210938"/>
			<point x="852.1419677734" y="199.6578979492" type="qcurve"/>
			<point x="856.1333007812" y="527.2382202148" type="line"/>
			<point x="855.1333007812" y="818.3377075195" type="line"/>
			<point x="823.2788696289" y="861.9194335938"/>
			<point x="675.3307495117" y="916.7445678711"/>
			<point x="587.6068725586" y="916.7445678711" type="qcurve" smooth="yes"/>
			<point x="433.6514282227" y="916.7445678711"/>
			<point x="252.9217529297" y="669.9985351562"/>
		</contour>
	</outline>
	<anchor name="bottom" x="604" y="0"/>
	<anchor name="center" x="876" y="1202"/>
	<anchor name="top" x="604" y="1534"/>
	<anchor name="topright" x="961" y="1000"/>
	<anchor name="liga" x="1207" y="0"/>
</glyph>
<glyph name="e" format="2">
	<unicode hex="0065"/>
	<advance width="1021"/>
	<outline>
		<contour>
			<point x="63.846496582" y="501.0699462891" type="qcurve" smooth="yes"/>
			<point x="63.846496582" y="736.9978027344"/>
			<point x="325.6556396484" y="1024.9167480469"/>
			<point x="540.2088623047" y="1024.9167480469" type="qcurve" smooth="yes"/>
			<point x="737.7813720703" y="1024.9167480469"/>
			<point x="954.1193237305" y="797.7973632812"/>
			<point x="972.5551757812" y="591.3981323242" type="qcurve"/>
			<point x="972.5551757812" y="530.9357910156" type="line"/>
			<point x="189.4026489258" y="530.9357910156" type="line"/>
			<point x="188.8840942383" y="628.248840332" type="line"/>
			<point x="810.3443603516" y="628.248840332" type="line"/>
			<point x="792.3472290039" y="761.434753418"/>
			<point x="644.0866699219" y="908.9934082031"/>
			<point x="532.4172363281" y="908.9934082031" type="qcurve" smooth="yes"/>
			<point x="395.2619628906" y="908.9934082031"/>
			<point x="243.8660888672" y="695.5133666992"/>
			<point x="244.8845825195" y="522.7984619141" type="qcurve" smooth="yes"/>
			<point x="244.9030761719" y="328.6942138672"/>
			<point x="439.2294921875" y="108.2020874023"/>
			<point x="597.4417724609" y="108.2020874023" type="qcurve" smooth="yes"/>
			<point x="704.0721435547" y="108.2020874023"/>
			<point x="842.5645751953" y="157.0911254883"/>
			<point x="890.594909668" y="193.9431762695" type="qcurve"/>
			<point x="942.3901367188" y="156" type="line"/>
			<point x="893.4728393555" y="85"/>
			<point x="708.8732299805" y="-17"/>
			<point x="574.6678466797" y="-17" type="qcurve" smooth="yes"/>
			<point x="337.1298828125" y="-17"/>
			<point x="63.846496582" y="249.2163085938"/>
		</contour>
	</outline>
	<anchor name="bottom" x="578" y="0"/>
	<anchor name="ogonek" x="744" y="0"/>
	<anchor name="top" x="539" y="1000"/>
</glyph>
<glyph name="g" format="2">
	<unicode hex="0067"/>
	<advance width="997"/>
	<outline>
		<contour>
			<point x="12.0924072266" y="-255.5526123047" type="qcurve" smooth="yes"/>
			<point x="12.0924072266" y="-170.2633666992"/>
			<point x="65.9401855469" y="-72.9479370117"/>
			<point x="155.2877197266" y="-20.4871826172" type="qcurve"/>
			<point x="259.6931762695" y="-51.8864746094" type="line"/>
			<point x="190.7974853516" y="-92.6786499023"/>
			<point x="152.3770751953" y="-192.6744384766"/>
			<point x="152.3770751953" y="-238.1998901367" type="qcurve" smooth="yes"/>
			<point x="152.3770751953" y="-320.2654418945"/>
			<point x="305.4064941406" y="-411.4095458984"/>
			<point x="526.4567260742" y="-411.4095458984" type="qcurve" smooth="yes"/>
			<point x="687.016784668" y="-411.4095458984"/>
			<point x="894.4142456055" y="-315.4152832031"/>
			<point x="894.4142456055" y="-238.6002197266" type="qcurve" smooth="yes"/>
			<point x="894.4142456055" y="-165.2004394531"/>
			<point x="701.4662475586" y="-118.0460205078"/>
			<point x="516.081237793" y="-114.255859375" type="qcurve" smooth="yes"/>
			<point x="290.4871826172" y="-109.6676025391"/>
			<point x="76.1012573242" y="-0.8059082031"/>
			<point x="76.1012573242" y="120.380065918" type="qcurve" smooth="yes"/>
			<point x="76.1012573242" y="185.8103637695"/>
			<point x="214.3778686523" y="301.8373413086"/>
			<point x="301.2069702148" y="348.6635742188" type="qcurve"/>
			<point x="349.0115966797" y="280.7263793945" type="line"/>
			<point x="283.2103881836" y="248.0120239258"/>
			<point x="204.4474487305" y="194.1237792969"/>
			<point x="204.4474487305" y="152.5269165039" type="qcurve" smooth="yes"/>
			<point x="204.4474487305" y="95.0596923828"/>
			<point x="349.1457519531" y="56.9948730469"/>
			<point x="548.7198486328" y="56.2758789062" type="qcurve" smooth="yes"/>
			<point x="821.2035522461" y="55.1371459961"/>
			<point x="1027.3283081055" y="-50.5854492188"/>
			<point x="1027.3283081055" y="-175.4393920898" type="qcurve" smooth="yes"/>
			<point x="1027.3283081055" y="-318.8345947266"/>
			<point x="777.9669189453" y="-518"/>
			<point x="496.8597412109" y="-518" type="qcurve" smooth="yes"/>
			<point x="234.9723510742" y="-518"/>
			<point x="12.0924072266" y="-370.2592773438"/>
		</contour>
		<contour>
			<point x="76.91796875" y="637.1260375977" type="qcurve" smooth="yes"/>
			<point x="76.91796875" y="798.9643554688"/>
			<point x="296.5919799805" y="1024.9167480469"/>
			<point x="482.8801269531" y="1024.9167480469" type="qcurve" smooth="yes"/>
			<point x="669.908996582" y="1024.9167480469"/>
			<point x="890.5939331055" y="814.9643554688"/>
			<point x="890.5939331055" y="642.857421875" type="qcurve" smooth="yes"/>
			<point x="890.5939331055" y="494.7661132812"/>
			<point x="678.4486083984" y="250.9711303711"/>
			<point x="490.1045532227" y="250.9711303711" type="qcurve" smooth="yes"/>
			<point x="304.5527954102" y="250.9711303711"/>
			<point x="76.91796875" y="475.8340454102"/>
		</contour>
		<contour>
			<point x="244.6967773438" y="647.1680297852" type="qcurve" smooth="yes"/>
			<point x="244.6967773438" y="520.9959106445"/>
			<point x="373.4227905273" y="354.7280273438"/>
			<point x="489.246887207" y="354.7280273438" type="qcurve" smooth="yes"/>
			<point x="595.8356323242" y="354.7280273438"/>
			<point x="721.6422729492" y="508.0328979492"/>
			<point x="721.6422729492" y="636.1680297852" type="qcurve" smooth="yes"/>
			<point x="721.6422729492" y="748.3401489258"/>
			<point x="595.0738525391" y="908.9379272461"/>
			<point x="479.2497558594" y="908.9379272461" type="qcurve" smooth="yes"/>
			<point x="373.1904296875" y="908.9379272461"/>
			<point x="244.6967773438" y="764.3586425781"/>
		</contour>
		<contour>
			<point x="529.8734130859" y="929.6221923828" type="line"/>
			<point x="518.8734130859" y="1005.9167480469" type="line"/>
			<point x="1012.94921875" y="1005.9167480469" type="line"/>
			<point x="1012.94921875" y="869.4557495117" type="line"/>
		</contour>
	</outline>
	<anchor name="bottom" x="524" y="-416"/>
	<anchor name="top" x="484" y="1000"/>
</glyph>
<glyph name="h" format="2">
	<unicode hex="0068"/>
	<advance width="1245"/>
	<outline>
		<contour>
			<point x="68.7888183594" y="0" type="line"/>
			<point x="68.7888183594" y="80" type="line"/>
			<point x="214.8452148438" y="115" type="line"/>
			<point x="216.8452148438" y="533.3565063477" type="line"/>
			<point x="214.8452148438" y="1372" type="line"/>
			<point x="44.0046386719" y="1406" type="line"/>
			<point x="44.0046386719" y="1500" type="line"/>
			<point x="326.759765625" y="1534" type="line"/>
			<point x="358.759765625" y="1534" type="line"/>
			<point x="386.759765625" y="1502" type="line"/>
			<point x="384.759765625" y="861.3946533203" type="line"/>
			<point x="432.8527832031" y="923.4193725586"/>
			<point x="616.3413085938" y="1021.9967041016"/>
			<point x="731.3200683594" y="1021.9967041016" type="qcurve" smooth="yes"/>
			<point x="887.6008300781" y="1021.9967041016"/>
			<point x="1038.3415527344" y="884.7310180664"/>
			<point x="1038.3415527344" y="766.9967041016" type="qcurve" smooth="yes"/>
			<point x="1038.3415527344" y="706.6088867188"/>
			<point x="1035.3415527344" y="587.9487915039"/>
			<point x="1035.3415527344" y="568.3565063477" type="qcurve" smooth="yes"/>
			<point x="1038.3415527344" y="115" type="line"/>
			<point x="1189.3439941406" y="80" type="line"/>
			<point x="1189.3439941406" y="0" type="line"/>
			<point x="734.4404296875" y="0" type="line"/>
			<point x="734.4404296875" y="80" type="line"/>
			<point x="865.6862792969" y="115" type="line"/>
			<point x="865.6862792969" y="568.3565063477" type="line"/>
			<point x="865.6862792969" y="723.9611816406" type="line" smooth="yes"/>
			<point x="865.6862792969" y="799.2821655273"/>
			<point x="765.2100830078" y="874.4131469727"/>
			<point x="673.919921875" y="874.4131469727" type="qcurve" smooth="yes"/>
			<point x="591.8380737305" y="874.4131469727"/>
			<point x="435.6729736328" y="800.2018432617"/>
			<point x="385.759765625" y="708.4240722656" type="qcurve"/>
			<point x="385.759765625" y="568.3165283203" type="line"/>
			<point x="385.759765625" y="115" type="line"/>
			<point x="499.5187988281" y="80" type="line"/>
			<point x="499.5187988281" y="0" type="line"/>
		</contour>
	</outline>
	<anchor name="bottom" x="629" y="0"/>
	<anchor name="center" x="347" y="1202"/>
	<anchor name="top" x="304" y="1534"/>
</glyph>
<glyph name="k" format="2">
	<unicode hex="006B"/>
	<advance width="1126"/>
	<outline>
		<contour>
			<point x="75.5539550781" y="0" type="line"/>
			<point x="75.5539550781" y="80" type="line"/>
			<point x="221.6103515625" y="115" type="line"/>
			<point x="223.783203125" y="527" type="line"/>
			<point x="221.6103515625" y="1372" type="line"/>
			<point x="50.7697753906" y="1406" type="line"/>
			<point x="50.7697753906" y="1493.5131835938" type="line"/>
			<point x="333.6977539062" y="1534" type="line"/>
			<point x="365.6977539062" y="1534" type="line"/>
			<point x="393.6977539062" y="1502" type="line"/>
			<point x="392.5249023438" y="542" type="line"/>
			<point x="392.6977539062" y="115" type="line"/>
			<point x="543.4567871094" y="80" type="line"/>
			<point x="543.4567871094" y="0" type="line"/>
		</contour>
		<contour>
			<point x="360.697265625" y="451.1477050781" type="line"/>
			<point x="354.697265625" y="553.2182617188" type="line"/>
			<point x="747.1475830078" y="885.9167480469" type="line"/>
			<point x="593.4694824219" y="915.9167480469" type="line"/>
			<point x="593.4694824219" y="1005.9167480469" type="line"/>
			<point x="1054.096862793" y="1005.9167480469" type="line"/>
			<point x="1054.096862793" y="915.9167480469" type="line"/>
			<point x="883.8510131836" y="880.9167480469" type="line"/>
		</contour>
		<contour>
			<point x="486.7855224609" y="591.1289672852" type="line"/>
			<point x="608.9564208984" y="674.5504760742" type="line"/>
			<point x="1017.2886962891" y="115" type="line"/>
			<point x="1135.1550292969" y="80" type="line"/>
			<point x="1135.1550292969" y="0" type="line"/>
			<point x="825.1544189453" y="0" type="line"/>
			<point x="809.2623291016" y="70.2427978516" type="line"/>
			<point x="831.1544189453" y="111" type="line"/>
		</contour>
	</outline>
	<anchor name="bottom" x="608" y="0"/>
	<anchor name="top" x="578" y="1534"/>
</glyph>
<glyph name="m" format="2">
	<unicode hex="006D"/>
	<advance width="1914"/>
	<outline>
		<contour>
			<point x="76.3935546875" y="0" type="line"/>
			<point x="76.3935546875" y="80" type="line"/>
			<point x="224.3959960938" y="115" type="line"/>
			<point x="226.5688476562" y="533.3565063477" type="line"/>
			<point x="224.3959960938" y="847.9167480469" type="line"/>
			<point x="76.3935546875" y="877.9167480469" type="line"/>
			<point x="76.3935546875" y="971.9167480469" type="line"/>
			<point x="338.3720703125" y="1005.9167480469" type="line"/>
			<point x="374.3227539062" y="978.0524902344" type="line"/>
			<point x="391.4833984375" y="871.4846191406" type="line"/>
			<point x="445.8564453125" y="937.5710449219"/>
			<point x="637.4309082031" y="1021.9167480469"/>
			<point x="739.1030273438" y="1021.9167480469" type="qcurve" smooth="yes"/>
			<point x="862.8627929688" y="1021.9167480469"/>
			<point x="1010.7826538086" y="939.7747192383"/>
			<point x="1037.0017089844" y="865.5339355469" type="qcurve"/>
			<point x="1092.4001464844" y="937.4415893555"/>
			<point x="1290.0129394531" y="1021.9167480469"/>
			<point x="1397.5908203125" y="1021.9167480469" type="qcurve" smooth="yes"/>
			<point x="1549.7014160156" y="1021.9167480469"/>
			<point x="1707.4343261719" y="887.9167480469"/>
			<point x="1707.4343261719" y="766.9167480469" type="qcurve" smooth="yes"/>
			<point x="1707.4343261719" y="707.0366821289"/>
			<point x="1704.042175293" y="573.3165283203"/>
			<point x="1704.0021972656" y="568.3565063477" type="qcurve" smooth="yes"/>
			<point x="1707.4343261719" y="115" type="line"/>
			<point x="1858.4367675781" y="80" type="line"/>
			<point x="1858.4367675781" y="0" type="line"/>
			<point x="1413.2739257812" y="0" type="line"/>
			<point x="1413.2739257812" y="80" type="line"/>
			<point x="1534.5197753906" y="115" type="line"/>
			<point x="1534.6926269531" y="572.3565063477" type="line"/>
			<point x="1537.6898193359" y="726.3758544922" type="line" smooth="yes"/>
			<point x="1538.8923950195" y="803.3758544922"/>
			<point x="1429.1335449219" y="874.3758544922"/>
			<point x="1338.6015014648" y="874.3758544922" type="qcurve" smooth="yes"/>
			<point x="1248.9952392578" y="874.3758544922"/>
			<point x="1100.1270141602" y="806.846862793"/>
			<point x="1055.5607910156" y="738.0225830078" type="qcurve"/>
			<point x="1050.8469238281" y="715.3081665039"/>
			<point x="1050.1684570312" y="636.3165283203"/>
			<point x="1050.1684570312" y="568.3565063477" type="qcurve" smooth="yes"/>
			<point x="1051.6005859375" y="115" type="line"/>
			<point x="1177.6030273438" y="80" type="line"/>
			<point x="1177.6030273438" y="0" type="line"/>
			<point x="749.4401855469" y="0" type="line"/>
			<point x="749.4401855469" y="80" type="line"/>
			<point x="880.6860351562" y="115" type="line"/>
			<point x="880.8588867188" y="566.3565063477" type="line"/>
			<point x="880.8588867188" y="726.3758544922" type="line" smooth="yes"/>
			<point x="880.8588867188" y="803.3758544922"/>
			<point x="770.4770507812" y="874.3758544922"/>
			<point x="683.2194824219" y="874.3758544922" type="qcurve" smooth="yes"/>
			<point x="594.876953125" y="874.3758544922"/>
			<point x="439.0127563477" y="797.1483764648"/>
			<point x="395.2056274414" y="720.5499267578" type="qcurve"/>
			<point x="395.1376953125" y="526.3565063477" type="line"/>
			<point x="395.310546875" y="115" type="line"/>
			<point x="509.0695800781" y="80" type="line"/>
			<point x="509.0695800781" y="0" type="line"/>
		</contour>
	</outline>
	<anchor name="bottom" x="958" y="0"/>
	<anchor name="top" x="958" y="1000"/>
</glyph>
<glyph name="s" format="2">
	<unicode hex="0073"/>
	<advance width="882"/>
	<outline>
		<contour>
			<point x="34.3755111779" y="0" type="line"/>
			<point x="34.3755111779" y="348.7916870117" type="line"/>
			<point x="131.0246200647" y="348.7916870117" type="line"/>
			<point x="139.2838974084" y="281.9233398438" type="line" smooth="yes"/>
			<point x="151.6385741208" y="195.9048461914"/>
			<point x="312.9851927732" y="95.8493652344"/>
			<point x="433.1697020505" y="94.8493652344" type="qcurve" smooth="yes"/>
			<point x="538.134728906" y="94.8493652344"/>
			<point x="675.0494017575" y="188.5816040039"/>
			<point x="674.4706053708" y="263.8697509766" type="qcurve" smooth="yes"/>
			<point x="673.8918089841" y="337.2098999023"/>
			<point x="538.501916406" y="418.0814208984"/>
			<point x="368.5215697263" y="466.0090942383" type="qcurve" smooth="yes"/>
			<point x="203.103478906" y="511.3898925781"/>
			<point x="74.2775511716" y="645.6932983398"/>
			<point x="75.4261703576" y="756.5364379883" type="qcurve" smooth="yes"/>
			<point x="76.5927367185" y="869.7159423828"/>
			<point x="253.1603026364" y="1024.9167480469"/>
			<point x="404.9621214841" y="1024.9167480469" type="qcurve" smooth="yes"/>
			<point x="495.2392821286" y="1024.9167480469"/>
			<point x="617.5771117185" y="989.2624511719"/>
			<point x="644.5461668943" y="975.0895996094" type="qcurve"/>
			<point x="654.805444238" y="1005.9167480469" type="line"/>
			<point x="738.1744627927" y="1005.9167480469" type="line"/>
			<point x="738.1744627927" y="700.0471801758" type="line"/>
			<point x="639.5461668943" y="700.0471801758" type="line"/>
			<point x="622.6761107419" y="786.0488891602" type="line" smooth="yes"/>
			<point x="612.4516844724" y="839.0488891602"/>
			<point x="497.0052733396" y="912.0488891602"/>
			<point x="409.4639525388" y="912.0488891602" type="qcurve" smooth="yes"/>
			<point x="324.6129393552" y="912.0488891602"/>
			<point x="221.4220824216" y="848.3961181641"/>
			<point x="221.4220824216" y="794.6504516602" type="qcurve" smooth="yes"/>
			<point x="221.4220824216" y="731.9115600586"/>
			<point x="308.1286850061" y="653.1580200195"/>
			<point x="467.0245590295" y="612.6844482422" type="qcurve" smooth="yes"/>
			<point x="614.6000595178" y="581.3612670898"/>
			<point x="821.8217406247" y="443.9390258789"/>
			<point x="821.8217406247" y="292.5888061523" type="qcurve" smooth="yes"/>
			<point x="821.8217406247" y="145.758605957"/>
			<point x="617.7137694333" y="-17"/>
			<point x="458.8252196286" y="-17" type="qcurve" smooth="yes"/>
			<point x="344.5279173825" y="-17"/>
			<point x="179.243737695" y="28.1728515625"/>
			<point x="128.4359359826" y="58.8271484375" type="qcurve"/>
			<point x="104.6789169397" y="0" type="line"/>
		</contour>
	</outline>
	<anchor name="bottom" x="468" y="0"/>
	<anchor name="top" x="416" y="1000"/>
</glyph>
<glyph name="x" format="2">
	<unicode hex="0078"/>
	<advance width="1006"/>
	<outline>
		<contour>
			<point x="4.0207519531" y="0" type="line"/>
			<point x="4.0207519531" y="80" type="line"/>
			<point x="137.0495605469" y="115" type="line"/>
			<point x="402.9616088867" y="477.9014282227" type="line"/>
			<point x="101.6973266602" y="880.9167480469" type="line"/>
			<point x="-5.8446655273" y="915.9167480469" type="line"/>
			<point x="-5.8446655273" y="1005.9167480469" type="line"/>
			<point x="397.5534057617" y="1005.9167480469" type="line"/>
			<point x="397.5534057617" y="915.9167480469" type="line"/>
			<point x="294.3897094727" y="881.9167480469" type="line"/>
			<point x="431.7556762695" y="677.8204345703" type="line"/>
			<point x="486.7156982422" y="608.7094116211" type="line"/>
			<point x="496.7156982422" y="608.7094116211" type="line"/>
			<point x="551.6770629883" y="678.7016601562" type="line"/>
			<point x="687.4627685547" y="885.9167480469" type="line"/>
			<point x="580.7583007812" y="915.9167480469" type="line"/>
			<point x="580.7583007812" y="1005.9167480469" type="line"/>
			<point x="953.596862793" y="1005.9167480469" type="line"/>
			<point x="953.596862793" y="915.9167480469" type="line"/>
			<point x="820.8114624023" y="880.9167480469" type="line"/>
			<point x="555.5599365234" y="524.7692871094" type="line"/>
			<point x="886.3867797852" y="115" type="line"/>
			<point x="997.4965209961" y="80" type="line"/>
			<point x="997.4965209961" y="0" type="line"/>
			<point x="584.5307006836" y="0" type="line"/>
			<point x="584.5307006836" y="80" type="line"/>
			<point x="693.6943969727" y="112" type="line"/>
			<point x="529.3473510742" y="339.5079345703" type="line"/>
			<point x="470.4653930664" y="409.8634033203" type="line"/>
			<point x="460.4653930664" y="409.8634033203" type="line"/>
			<point x="413.8514404297" y="333.8665771484" type="line"/>
			<point x="270.3982543945" y="110" type="line"/>
			<point x="398.8593139648" y="80" type="line"/>
			<point x="398.8593139648" y="0" type="line"/>
		</contour>
	</outline>
	<anchor name="bottom" x="522" y="0"/>
	<anchor name="top" x="522" y="1000"/>
	<anchor name="cy_descender" x="1043" y="80"/>
</glyph>
